<svg xmlns="http://www.w3.org/2000/svg" width="100" height="300" viewBox="0 0 100 300" fill="none">
<path d="M27 292C24 288 28 280 28 280H46H63C63 280 77 289 74 294C71 299 56 294 56 294C53 299 30 296 27 292Z" fill="#59300F"/>
<path d="M56 294C53 299 30 296 27 292C24 288 28 280 28 280H46M56 294C59 289 46 280 46 280M56 294C56 294 71 299 74 294C77 289 63 280 63 280H46" stroke="black" stroke-width="0.5"/>
<path d="M27 282C36.2 283.8 41.4 284 51 282C56.6533 283.558 59.9283 283.63 66 282L70 216H26L27 282Z" fill="#1E287C"/>
<path d="M53 230L51 282M51 282C41.4042 284.035 36.1748 283.804 27 282L26 216H70L66 282C59.9283 283.63 56.6533 283.558 51 282Z" stroke="black" stroke-width="0.5"/>
<path d="M75.5 202.5H65L69 217C73.0987 220.504 75.2687 220.409 79 218C79.1116 211.96 75.5 202.5 75.5 202.5Z" fill="#B79657"/>
<path d="M69 128C67 120 58 114.5 58 114.5C58 114.5 54.5 155 55 164.5C55.5 174 63 207 63 207C70.2484 208.863 73.577 208.041 78.5 204C78.5 204 72 174 71 162.5C70 151 71 136 69 128Z" fill="#253131"/>
<path d="M69 161C70.068 133.448 66.0849 118.049 53 103L34 114L25 161V222C47.4837 225.25 56.9612 224.553 71 221C72.9588 197.087 71.6426 184.105 69 161Z" fill="#464D4A"/>
<path d="M33.5 211.5H21C21 211.5 22 226 24.5 229C27 232 30.5 230.5 32.5 229C34.5 227.5 33.5 211.5 33.5 211.5Z" fill="#B79657"/>
<path d="M46.5 130C47.5 122 44.5 115 40 113C35.5 111 30.5 113 26 120.5C21.5 128 17.5 158 17 175.5C16.5 193 18.5 214 18.5 214C25.9142 217.029 29.9495 216.659 37 213.5C37 213.5 35 183.5 36 175.5C37 167.5 45.5 138 46.5 130Z" fill="#253131"/>
<path d="M72 11L22.064 19.5781L13 65.0469C17 73 22 82 28 76L44.7239 109H82.4905C82.4905 109 88.5331 75.6562 88.5331 71.1094C88.5331 66.5625 87.0224 59.7422 87.0224 55.1953C87.0224 50.6484 90.0438 46.8594 90.7991 44.5859C91.5544 42.3125 90.0438 28.6719 88.5331 25.6406C87.0224 22.6094 72 11 72 11Z" fill="#B79657"/>
<path d="M87 15.6124C87 7.88223 51.4899 -1.394 34.1126 7.88223C19.0019 12.0987 14.4687 19.4775 9.93546 30.2998C5.40225 41.1221 6.91332 52.7173 9.17992 59.6745C11.4465 66.6317 18.2463 78.227 20.5129 79C20.5129 79 22.024 79 22.024 77.454C22.024 75.9079 15.9797 68.9508 15.9797 62.7666C15.9797 56.5824 17.4908 53.4904 21.2685 53.4904C25.0462 53.4904 28.0683 62.7666 28.0683 62.7666C28.0683 62.7666 34.8681 41.8951 34.8681 38.803C34.8681 35.7109 29.5794 33.3919 30.3349 28.7538C31.0904 24.1156 38.6458 18.7045 43.179 18.7045C47.7122 18.7045 56.0231 24.1156 67.3561 24.1156C78.6891 24.1156 87 23.3426 87 15.6124Z" fill="#161008"/>
<path d="M57.4661 39C52.1017 39 40.6067 43.2424 42.1394 44.9394C43.6721 46.6364 57.4661 45.7879 57.4661 45.7879C57.4661 45.7879 68.961 46.6364 68.961 44.9394C68.961 43.2424 62.8304 39 57.4661 39Z" fill="#161008"/>
<path d="M81.2223 39C78.157 39 72.7927 43.2424 73.559 44.9394C74.3254 46.6364 91.1847 44.9394 91.951 43.2424C92.7173 41.5455 84.2877 39 81.2223 39Z" fill="#161008"/>
<path d="M57.1695 45C53.4407 45 43 49.7143 43 55.2143C43 60.7143 52.6949 67 56.4237 67C60.1525 67 66.8644 60.7143 66.8644 55.2143C66.8644 49.7143 60.8983 45 57.1695 45Z" fill="white"/>
<path d="M81.0339 45C78.0508 45 72.8305 50.5 72.8305 55.2143C72.8305 59.9286 78.0508 67 82.5254 67C87 67 87 59.9286 87 55.2143C87 50.5 84.0169 45 81.0339 45Z" fill="white"/>
<path d="M66.102 56.12C66.102 52.32 61.5714 47 58.551 47C55.5306 47 51 50.8 51 56.12C51 61.44 54.7755 66 59.3061 66C63.8367 66 66.102 59.92 66.102 56.12Z" fill="black"/>
<path d="M88 56.12C88 52.32 84.9796 47.76 82.7143 47.76C80.449 47.76 77.4286 51.56 77.4286 56.12C77.4286 60.68 79.6939 66 82.7143 66C85.7347 66 88 59.92 88 56.12Z" fill="black"/>
<path d="M72 58.5C74 66 80.0033 77.131 79 79C77 81.5 72.5 81.5 72.5 81.5M62 91C67 92.5 75 92.5 79 91" stroke="black" stroke-opacity="0.7"/>
<path d="M47 89C38.7524 86.0741 35.1527 80.1619 29 68.5C28.9009 73.7207 28.4707 75.8358 26.5 77L31.5 97C40.0322 108.561 44.953 114.077 54.5 118.5C61.6231 120.379 65.7933 120.548 73.5 119.5L84 111L88 92C88 92 87.5 81.5 86.5 81.5C85.5 81.5 84 91.5 83 91C82 90.5 83 86 81.5 85C80 84 72.2579 82.1218 72.5 85C72.7421 87.8782 78 88.5 78 88.5C80.4415 91.7933 80.3356 93.6605 79.5 97C79.5 97 77 95 72.5 95C68 95 59.3058 98.7179 58.5 98C59.8214 92.4937 60.6743 90.3328 62.5 89C66.6419 89.2733 68.8731 89.1886 71.5 85.5C68.088 82.3101 64.7153 82.8718 58 85C55.9423 88.3836 55.6927 91.2065 55.5 96.5L47 89Z" fill="#161008"/>
</svg>
